<svg xmlns="http://www.w3.org/2000/svg" xmlns:xlink="http://www.w3.org/1999/xlink" width="500" zoomAndPan="magnify" viewBox="0 0 375 374.999991" height="500" preserveAspectRatio="xMidYMid meet" version="1.0"><defs><g/></defs><g fill="#011232" fill-opacity="1"><g transform="translate(98.667448, 280.36665)"><g><path d="M 124.703125 -136.03125 L 146.53125 -95.96875 C 141.5625 -87.789062 135.265625 -80.101562 127.640625 -72.90625 C 120.015625 -65.71875 111.269531 -59.265625 101.40625 -53.546875 C 88.082031 -45.835938 74.757812 -40.609375 61.4375 -37.859375 C 48.125 -35.117188 35.242188 -35.109375 22.796875 -37.828125 C 10.359375 -40.554688 -1.316406 -46.15625 -12.234375 -54.625 C -23.148438 -63.09375 -32.867188 -74.679688 -41.390625 -89.390625 C -49.910156 -104.097656 -55.023438 -118.410156 -56.734375 -132.328125 C -58.441406 -146.253906 -57.296875 -159.34375 -53.296875 -171.59375 C -49.296875 -183.84375 -42.617188 -195.160156 -33.265625 -205.546875 C -23.910156 -215.941406 -12.488281 -225.050781 1 -232.875 C 9.3125 -237.6875 17.753906 -241.363281 26.328125 -243.90625 C 34.910156 -246.445312 44.488281 -247.773438 55.0625 -247.890625 L 78.953125 -209.03125 L 58.453125 -197.15625 L 34.3125 -226.859375 C 25.226562 -225.753906 16.96875 -223.050781 9.53125 -218.75 C 1.914062 -214.332031 -4.296875 -208.59375 -9.109375 -201.53125 C -13.921875 -194.476562 -16.957031 -186.363281 -18.21875 -177.1875 C -19.488281 -168.007812 -18.800781 -157.945312 -16.15625 -147 C -13.507812 -136.050781 -8.675781 -124.519531 -1.65625 -112.40625 C 5.363281 -100.289062 12.9375 -90.40625 21.0625 -82.75 C 29.1875 -75.09375 37.539062 -69.535156 46.125 -66.078125 C 54.71875 -62.617188 63.273438 -61.21875 71.796875 -61.875 C 80.316406 -62.539062 88.382812 -65.082031 96 -69.5 C 104.132812 -74.207031 111.457031 -80.523438 117.96875 -88.453125 L 103.9375 -124 Z M 124.703125 -136.03125 "/></g></g></g><g fill="#011232" fill-opacity="1"><g transform="translate(300.446663, 88.202859)"><g><path d="M -125.5 135.296875 L -147.09375 95.09375 C -142.082031 86.9375 -135.742188 79.285156 -128.078125 72.140625 C -120.421875 65.003906 -111.640625 58.601562 -101.734375 52.9375 C -88.367188 45.300781 -75.015625 40.148438 -61.671875 37.484375 C -48.335938 34.816406 -35.457031 34.882812 -23.03125 37.6875 C -10.601562 40.5 1.039062 46.171875 11.90625 54.703125 C 22.769531 63.234375 32.421875 74.878906 40.859375 89.640625 C 49.285156 104.398438 54.3125 118.742188 55.9375 132.671875 C 57.5625 146.609375 56.335938 159.6875 52.265625 171.90625 C 48.203125 184.132812 41.460938 195.414062 32.046875 205.75 C 22.628906 216.082031 11.15625 225.117188 -2.375 232.859375 C -10.71875 237.617188 -19.1875 241.242188 -27.78125 243.734375 C -36.375 246.234375 -45.960938 247.507812 -56.546875 247.5625 L -80.203125 208.5625 L -59.625 196.8125 L -35.671875 226.640625 C -26.578125 225.597656 -18.300781 222.945312 -10.84375 218.6875 C -3.195312 214.3125 3.050781 208.609375 7.90625 201.578125 C 12.757812 194.554688 15.847656 186.460938 17.171875 177.296875 C 18.492188 168.128906 17.863281 158.0625 15.28125 147.09375 C 12.695312 136.125 7.9375 124.5625 1 112.40625 C -5.945312 100.25 -13.460938 90.320312 -21.546875 82.625 C -29.628906 74.925781 -37.957031 69.316406 -46.53125 65.796875 C -55.101562 62.285156 -63.648438 60.832031 -72.171875 61.4375 C -80.691406 62.050781 -88.773438 64.546875 -96.421875 68.921875 C -104.578125 73.578125 -111.929688 79.851562 -118.484375 87.75 L -104.671875 123.390625 Z M -125.5 135.296875 "/></g></g></g></svg>